<?xml version="1.0" encoding="utf-8"?>
<!-- Generator: Adobe Illustrator 21.1.0, SVG Export Plug-In . SVG Version: 6.00 Build 0)  -->
<svg version="1.1" id="Layer_7" xmlns="http://www.w3.org/2000/svg" xmlns:xlink="http://www.w3.org/1999/xlink" x="0px" y="0px"
	 viewBox="0 0 77.8 74.1" style="enable-background:new 0 0 77.8 74.1;" xml:space="preserve">
<style type="text/css">
	.st0{fill:#3F6BB4;}
</style>
<g>
	<g>
		<g>
			<path class="st0" d="M38.3,55.7c-3.9,0-7.7-1.2-11-3.4c0,0-0.1-0.1-0.1-0.1c-0.3-0.3-0.5-0.7-0.5-1.1c0-0.4,0.1-0.9,0.5-1.2
				L71.6,5.4c0.5-0.5,0.5-1.4,0-1.9c-0.5-0.5-1.4-0.5-1.9,0L56.2,17.1c-0.4,0.4-1.1,0.6-1.7,0.3c-5-2.1-10.2-3.2-15.6-3.2
				c-15.3,0-29.2,8.9-35.6,22.7c2.3,4.9,5.7,9.4,9.9,13c0.7,0.6,0.7,1.6,0.2,2.2c-0.6,0.7-1.6,0.7-2.2,0.2c-4.7-4-8.5-9.2-11-14.8
				c-0.2-0.4-0.2-0.9,0-1.3C7,20.9,22.2,11.1,38.9,11.1c5.5,0,10.8,1,15.8,3L67.5,1.3c1.7-1.7,4.6-1.7,6.3,0c1.7,1.7,1.7,4.6,0,6.3
				L30.8,50.7c2.3,1.2,4.9,1.9,7.5,1.9c8.8,0,16-7.2,16-16c0-1.4-0.2-2.7-0.5-4c-0.2-0.8,0.3-1.7,1.1-1.9c0.8-0.2,1.7,0.3,1.9,1.1
				c0.4,1.6,0.6,3.2,0.6,4.8C57.5,47.1,48.9,55.7,38.3,55.7z"/>
		</g>
		<g>
			<path class="st0" d="M5.6,74.1c-1.2,0-2.3-0.5-3.2-1.3c-1.7-1.7-1.7-4.6,0-6.3l43.8-43.8c-2.4-1.4-5.1-2.1-7.9-2.1
				c-8.8,0-16,7.2-16,16c0,1.4,0.2,2.8,0.5,4.1c0.2,0.8-0.3,1.7-1.1,1.9c-0.8,0.2-1.7-0.3-1.9-1.1c-0.4-1.6-0.6-3.2-0.6-4.9
				c0-10.6,8.6-19.2,19.2-19.2c4.1,0,8,1.3,11.4,3.7c0.4,0.3,0.6,0.7,0.6,1.1c0,0.5-0.1,0.9-0.5,1.2L4.6,68.7
				c-0.5,0.5-0.5,1.4,0,1.9C5.1,71,6,71,6.5,70.5l14.2-14.2c0.1-0.1,0.3-0.2,0.4-0.3c0.5-0.2,1-0.2,1.4,0c5.1,2.4,10.6,3.6,16.4,3.6
				c15.3,0,29.2-8.9,35.6-22.7C72.1,31.7,68.5,27,64,23.3c-0.7-0.6-0.8-1.5-0.2-2.2c0.6-0.7,1.5-0.8,2.2-0.2c5,4.1,9,9.5,11.7,15.4
				c0.2,0.4,0.2,0.9,0,1.3c-6.8,15.3-22.1,25.2-38.8,25.2c-5.8,0-11.4-1.1-16.7-3.4L8.7,72.7C7.9,73.6,6.8,74.1,5.6,74.1z"/>
		</g>
	</g>
</g>
</svg>
