<?xml version="1.0" encoding="utf-8"?>
<!-- Generator: Adobe Illustrator 21.1.0, SVG Export Plug-In . SVG Version: 6.00 Build 0)  -->
<svg version="1.1" id="Layer_7" xmlns="http://www.w3.org/2000/svg" xmlns:xlink="http://www.w3.org/1999/xlink" x="0px" y="0px"
	 viewBox="0 0 78.7 83.2" style="enable-background:new 0 0 78.7 83.2;" xml:space="preserve">
<style type="text/css">
	.st0{fill:#3F6BB4;}
</style>
<g>
	<g>
		<g>
			<path class="st0" d="M5,78.7c-1.3,0-2.6-0.5-3.6-1.5c-2-2-2-5.2,0-7.1l55.5-55.5c-1.6-2-6.4-6-17.4-6
				c-12.5,0-19.9,10.3-21.8,17.3c-0.2,0.6,0.1,1.1,0.3,1.3c0.3,0.4,0.7,0.6,1.2,0.6c0.7,0,1.3-0.5,1.5-1.1c1.5-6,7.6-14.9,18.5-14.9
				c4.2,0,7.8,0.8,10.7,2.3c0.9,0.5,1.2,1.5,0.7,2.4c-0.5,0.9-1.5,1.2-2.4,0.7c-2.4-1.3-5.4-1.9-9.1-1.9c-8.7,0-13.8,7.5-15,12.2
				c-0.6,2.3-2.6,3.8-4.9,3.8c-1.6,0-3.1-0.7-4.1-2c-1-1.3-1.3-2.9-0.8-4.4C16.5,16.9,25.1,5,39.5,5c16.5,0,21.1,8.6,21.3,9
				c0.4,0.7,0.2,1.5-0.3,2.1L4,72.6c-0.6,0.6-0.6,1.5,0,2.1c0.6,0.6,1.5,0.6,2.1,0l49.8-49.8c0.5-0.5,1.1-0.6,1.7-0.5
				c0.6,0.2,1.1,0.7,1.3,1.3c0.1,0.5,3.2,13.1-7.6,21.6c-8,6.3-12.1,10.9-12.1,13.5c0,1-0.8,1.8-1.8,1.8c-1,0-1.8-0.8-1.8-1.8
				c0-4,4-8.9,13.5-16.3c5.8-4.6,6.7-10.7,6.7-14.5L8.6,77.2C7.6,78.2,6.3,78.7,5,78.7z"/>
		</g>
		<g>
			<path class="st0" d="M38.1,83.2c-5.8,0-9.9-1.4-12.1-4.1c-2.2-2.7-1.8-5.5-1.7-5.8c0.2-1,1.1-1.6,2.1-1.4c1,0.2,1.6,1.1,1.4,2.1
				c0,0-0.2,1.6,1,3c1.5,1.8,4.8,2.7,9.3,2.7c11.8,0,12.4-9,12.4-10.2c-0.2-1.4-0.6-9.6,8.9-23.2c9.1-13,2.4-24.6,2.1-25.1
				c-0.4-0.7-0.3-1.6,0.3-2.2l13-13c0.6-0.6,0.6-1.5,0-2.1c-0.6-0.6-1.5-0.6-2.1,0l-7.2,7.2c-0.7,0.7-1.8,0.7-2.5,0
				c-0.7-0.7-0.7-1.8,0-2.5l7.2-7.2c2-2,5.2-2,7.1,0c2,2,2,5.2,0,7.1l-12,12c1.8,3.7,5.9,15.2-2.9,27.7C53,61.6,54.1,69,54.1,69.1
				c0,0.1,0,0.2,0,0.3C54.1,69.5,53.9,83.2,38.1,83.2z"/>
		</g>
	</g>
</g>
</svg>
