<?xml version="1.0" encoding="utf-8"?>
<!-- Generator: Adobe Illustrator 19.1.0, SVG Export Plug-In . SVG Version: 6.00 Build 0)  -->
<svg version="1.1" id="Camada_3" xmlns="http://www.w3.org/2000/svg" xmlns:xlink="http://www.w3.org/1999/xlink" x="0px" y="0px"
	 viewBox="0 0 75.4 127" style="enable-background:new 0 0 75.4 127;" xml:space="preserve">
<style type="text/css">
	.st0{fill:#8A4196;}
</style>
<g>
	<path class="st0" d="M33.8,127c-8.1,0-13.9-1.9-17-5.7c-3.1-3.7-2.5-7.8-2.4-8.2c0.2-1.4,1.5-2.3,2.9-2c1.3,0.2,2.2,1.5,2,2.9
		c0,0.1-0.3,2.3,1.4,4.2c2.2,2.5,6.7,3.9,13.1,3.9c16.5,0,17.4-12.7,17.5-14.3c-0.2-2-0.9-13.5,12.5-32.6
		c12.8-18.3,3.3-34.6,2.9-35.3c-0.1-0.2-8.1-13.5-23.4-17l-2.7,50.3c-0.2,3.3-2.9,5.9-6.2,5.9c-3.3,0-6-2.5-6.2-5.8l-2.7-39.3
		c-6.1,3.4-10.1,9.7-11.3,14.7c-0.8,3.2-3.6,5.4-6.9,5.4c-2.3,0-4.3-1-5.7-2.8c-1.4-1.8-1.8-4-1.2-6.2c2.8-10,11.3-21.6,24.1-26.1
		l-0.6-8.2c-0.2-2.8,0.8-5.5,2.7-7.5S31.1,0,33.8,0c2.8,0,5.4,1.1,7.3,3.1c1.9,2,2.9,4.7,2.7,7.4c-0.1,1.4-1.2,2.4-2.6,2.4
		c-1.4-0.1-2.4-1.2-2.4-2.6c0.1-1.4-0.4-2.7-1.4-3.7c-1-1-2.3-1.6-3.7-1.6c-1.4,0-2.7,0.6-3.7,1.6c-1,1-1.4,2.4-1.4,3.8l0.7,10.1
		c0.1,1.2-0.7,2.3-1.9,2.6c-12,3.4-19.9,14.1-22.5,23.2c-0.2,0.9,0.1,1.5,0.4,1.8c0.4,0.5,1,0.9,1.7,0.9c1,0,1.8-0.7,2.1-1.6
		c1.8-7.3,7.9-16.2,17.6-19.6c0.6-0.2,1.4-0.2,2,0.1c0.6,0.3,1.1,0.9,1.3,1.5c0,0.2,0.1,0.3,0.1,0.5L33,72.9c0,0.6,0.6,1.1,1.2,1.1
		c0.6,0,1.2-0.5,1.2-1.1l2.9-53.1c0-0.6,0.2-1.1,0.6-1.5c0.6-0.6,1.4-1,2.2-0.8c19.6,2.7,29.3,19.2,29.8,19.9
		c0.5,0.7,11.7,19.6-3.1,40.7c-13.1,18.7-11.6,29-11.6,29.1c0,0.1,0,0.3,0,0.4C56.3,107.7,56,127,33.8,127z"/>
	<path class="st0" d="M33.8,107c-6.3,0-11.5-5.2-11.5-11.5S27.4,84,33.8,84c0.6,0,1.2,0,1.8,0.1c3.2-3.7,7.8-7.6,13.8-11.7
		c13.4-9.2,9.7-22.3,8.8-24.8c0,0,0,0,0,0c-2.5-6.4-7.6-10.3-11.5-12.5c-1.2-0.7-1.6-2.2-0.9-3.4c0.7-1.2,2.2-1.6,3.4-0.9
		c4.6,2.6,10.7,7.3,13.7,15.1c0,0,0,0.1,0,0.1c1.1,3.2,5.7,19.3-10.7,30.6c-6.2,4.3-10.8,8.3-13.7,11.9c-0.6,0.8-1.7,1.2-2.7,0.8
		c-0.6-0.2-1.3-0.3-2-0.3c-3.6,0-6.5,2.9-6.5,6.5s2.9,6.5,6.5,6.5s6.5-2.9,6.5-6.5c0-1.4,1.1-2.5,2.5-2.5s2.5,1.1,2.5,2.5
		C45.3,101.8,40.1,107,33.8,107z"/>
</g>
</svg>
