<?xml version="1.0" encoding="utf-8"?>
<!-- Generator: Adobe Illustrator 19.1.0, SVG Export Plug-In . SVG Version: 6.00 Build 0)  -->
<svg version="1.1" id="icons" xmlns="http://www.w3.org/2000/svg" xmlns:xlink="http://www.w3.org/1999/xlink" x="0px" y="0px"
	 viewBox="0 0 48 40" style="enable-background:new 0 0 48 40;" xml:space="preserve">
<style type="text/css">
	.st0{fill:#834098;}
</style>
<g>
	<path class="st0" d="M6,36H4v-2c0-1.5,1.5-3.1,3.2-3.6l3-0.8c0.4-0.1,0.8-0.4,0.8-0.7v-2h2v2c0,1.2-0.9,2.2-2.3,2.6l-3,0.8
		C6.7,32.6,6,33.6,6,34L6,36z"/>
	<path class="st0" d="M26,36h-2v-2c0-0.4-0.7-1.4-1.7-1.6l-3-0.8C17.9,31.2,17,30.2,17,29v-2h2v2c0,0.2,0.4,0.5,0.8,0.7l3,0.8
		c1.7,0.4,3.2,2.1,3.2,3.5L26,36z"/>
	<path class="st0" d="M15,29c-1.2,0-6-1-6-4v-1.6l-1-1v-2.8l1-1V17c0-3,2-5,5-5h2c3,0,5,2,5,5v1.6l1,1v2.8l-1,1V25
		C21,28,16.2,29,15,29z M10,21.6l1,1V25c0,1.1,3,2,4,2s4-0.9,4-2v-2.4l1-1v-1.2l-1-1V17c0-1.9-1.1-3-3-3h-2c-1.9,0-3,1.1-3,3v2.4
		l-1,1V21.6z"/>
	<rect x="28" y="17" class="st0" width="13" height="2"/>
	<rect x="28" y="22" class="st0" width="13" height="2"/>
	<rect x="28" y="27" class="st0" width="6" height="2"/>
	<polygon class="st0" points="48,40 0,40 0,6 20,6 20,8 2,8 2,38 46,38 46,8 28,8 28,6 48,6 	"/>
	<path class="st0" d="M29,11H19V0h10V11z M21,9h6V2h-6V9z"/>
</g>
</svg>
