<?xml version="1.0" encoding="utf-8"?>
<!-- Generator: Adobe Illustrator 19.1.0, SVG Export Plug-In . SVG Version: 6.00 Build 0)  -->
<svg version="1.1" id="Ñëîé_1" xmlns="http://www.w3.org/2000/svg" xmlns:xlink="http://www.w3.org/1999/xlink" x="0px" y="0px"
	 viewBox="0 0 722.8 722.8" style="enable-background:new 0 0 722.8 722.8;" xml:space="preserve">
<style type="text/css">
	.st0{fill:#FFFFFF;}
</style>
<g>
	<path class="st0" d="M243.9,210.6L243.9,210.6c0,9.5,4.1,18.6,11.2,24.9l127.2,113.3c7.5,6.7,7.5,18.5,0,25.2L255.1,487.3
		c-7.1,6.3-11.2,15.4-11.2,24.9v0c0,28.8,34,44.1,55.5,24.9l167.7-149.4c15.8-14,15.8-38.7,0-52.7L299.4,185.7
		C277.9,166.5,243.9,181.8,243.9,210.6z"/>
	<path class="st0" d="M361.4,0C161.8,0,0,161.8,0,361.4s161.8,361.4,361.4,361.4S722.8,561,722.8,361.4S561,0,361.4,0z M580.9,580.9
		c-58.6,58.6-136.6,90.9-219.5,90.9c-82.9,0-160.9-32.3-219.5-90.9C83.3,522.3,51,444.3,51,361.4c0-82.9,32.3-160.9,90.9-219.5
		C200.6,83.3,278.5,51,361.4,51c82.9,0,160.9,32.3,219.5,90.9c58.6,58.6,90.9,136.6,90.9,219.5C671.8,444.3,639.5,522.3,580.9,580.9
		z"/>
</g>
</svg>
