<?xml version="1.0" encoding="utf-8"?>
<!-- Generator: Adobe Illustrator 19.1.0, SVG Export Plug-In . SVG Version: 6.00 Build 0)  -->
<svg version="1.1" id="icons" xmlns="http://www.w3.org/2000/svg" xmlns:xlink="http://www.w3.org/1999/xlink" x="0px" y="0px"
	 viewBox="0 0 46.5 47.5" style="enable-background:new 0 0 46.5 47.5;" xml:space="preserve">
<style type="text/css">
	.st0{fill:#904095;}
</style>
<g>
	<path class="st0" d="M30.8,35.4c-0.9,0-2.2-0.3-3.9-1.2c-2.4-1.2-5-3.3-7.6-5.8l1.4-1.4c2.4,2.4,4.9,4.3,7.1,5.5
		c2.1,1.1,3.3,1.1,3.5,0.9l1.4,1.4C32.4,35.1,31.8,35.4,30.8,35.4z"/>
	<path class="st0" d="M19.3,28.3c-4.9-4.9-8.7-11.1-6.4-13.4l1.4,1.4c-0.7,0.7,1.1,5.3,6.4,10.6L19.3,28.3z"/>
	<path class="st0" d="M3,47.5c-0.8,0-1.5-0.3-2.1-0.8c-0.8-0.8-1-2.2-0.5-3.4c1.7-4.3,10.1-26,11.9-27.7l0.7-0.7
		c0.8-0.8,2.4-1.3,5.9,0.5c2.4,1.2,5,3.3,7.6,5.8s4.6,5.2,5.8,7.6c1.8,3.4,1.3,5.1,0.5,5.9l-0.7,0.7C30.3,37.2,8.7,45.6,4.3,47.3
		C3.9,47.4,3.5,47.5,3,47.5z M14.9,16.2c-0.2,0-0.4,0.1-0.5,0.2L13.7,17c-1.2,1.3-7.6,17.3-11.4,27.1l0,0c-0.2,0.5-0.1,1,0.1,1.2
		c0.2,0.2,0.7,0.3,1.2,0.1c9.8-3.8,25.8-10.2,27.1-11.4l0.7-0.7c0.3-0.3,0.3-1.4-0.9-3.5c-1.2-2.2-3.1-4.7-5.5-7.1
		C20.5,18.2,16.5,16.2,14.9,16.2z"/>
	<path class="st0" d="M25.7,8c-2.2,0-4-1.8-4-4s1.8-4,4-4s4,1.8,4,4S27.9,8,25.7,8z M25.7,2c-1.1,0-2,0.9-2,2s0.9,2,2,2s2-0.9,2-2
		S26.8,2,25.7,2z"/>
	<path class="st0" d="M40,31c-1.3,0-2.4-0.5-3.3-1.4c-0.8-0.9-1.2-2-1-2.8l1.9,0.5c0,0.1,0.1,0.6,0.6,1.1c0.4,0.4,1.1,0.8,2.2,0.7
		c0.9-0.1,1.6-0.9,1.8-1.8c0.2-1.2-0.5-2.4-2.1-3.4c-4.5-2.7-10.2,1.4-13.7,5.8l-1.6-1.3c4-5,10.7-9.6,16.3-6.2
		c2.3,1.4,3.4,3.4,3,5.5c-0.3,1.7-1.7,3.1-3.4,3.3C40.5,31,40.2,31,40,31z"/>
	<path class="st0" d="M39.6,19.8C39.6,19.8,39.6,19.8,39.6,19.8c-0.4,0-0.8-0.3-0.9-0.6l-1.3-2.9l-3-1.2c-0.3-0.1-0.6-0.4-0.6-0.8
		c0-0.4,0.1-0.7,0.4-0.9l2.5-1.8l0.1-3.4c0-0.4,0.2-0.7,0.6-0.9c0.3-0.2,0.7-0.1,1,0.1l2.5,1.9l3-1c0.4-0.1,0.7,0,1,0.2
		c0.3,0.3,0.4,0.6,0.3,1l-0.9,3l2,2.5c0.2,0.3,0.3,0.7,0.1,1c-0.1,0.3-0.5,0.6-0.8,0.6L42.1,17l-1.7,2.4
		C40.3,19.7,40,19.8,39.6,19.8z M36.8,14l1.7,0.7c0.2,0.1,0.4,0.3,0.5,0.5l0.8,1.6l1-1.4c0.2-0.3,0.5-0.4,0.8-0.4l2-0.1l-1.1-1.4
		c-0.2-0.3-0.3-0.6-0.2-0.9l0.5-1.7L41,11.4c-0.3,0.1-0.6,0-0.9-0.2l-1.4-1.1l-0.1,2c0,0.3-0.2,0.6-0.4,0.8L36.8,14z"/>
	<path class="st0" d="M19,20.7l-1.8-0.9c1.9-3.5,3.2-8.5,2-11.1c-0.4-0.9-1-1.4-1.9-1.6c-1.2-0.3-2.2-0.2-2.9,0.3
		c-0.5,0.4-0.8,1-0.8,1.7c0,0.9,0.7,1.3,1,1.4c0.4,0.2,1,0.2,1.3-0.1l1.4,1.4c-0.9,0.9-2.2,1.1-3.5,0.6c-1.4-0.6-2.2-1.8-2.2-3.3
		c0-1.3,0.6-2.6,1.6-3.3C14.5,4.8,16.2,4.5,18,5c1.5,0.4,2.5,1.4,3.2,2.8C22.6,11.2,21.1,16.7,19,20.7z"/>
	<path class="st0" d="M28,15.9l-1-1.7c2.1-1.2,3.7-3.1,4.3-5.5c0.7-2.3,0.4-4.8-0.8-6.9l1.7-1c1.5,2.6,1.8,5.6,1,8.5
		C32.5,12,30.6,14.4,28,15.9z"/>
</g>
</svg>
