<?xml version="1.0" encoding="utf-8"?>
<!-- Generator: Adobe Illustrator 19.1.0, SVG Export Plug-In . SVG Version: 6.00 Build 0)  -->
<svg version="1.1" id="Camada_3" xmlns="http://www.w3.org/2000/svg" xmlns:xlink="http://www.w3.org/1999/xlink" x="0px" y="0px"
	 viewBox="0 0 110.7 117.1" style="enable-background:new 0 0 110.7 117.1;" xml:space="preserve">
<style type="text/css">
	.st0{fill:#8A4196;}
</style>
<g>
	<path class="st0" d="M7.1,110.7c-1.8,0-3.6-0.7-5-2.1c-2.8-2.8-2.8-7.3,0-10l78-78c-2.3-2.7-9-8.5-24.5-8.5
		c-17.5,0-28,14.5-30.7,24.3c-0.2,0.9,0.1,1.5,0.4,1.8c0.4,0.5,1,0.9,1.7,0.9c1,0,1.8-0.7,2.1-1.6c2.1-8.4,10.7-21,26-21
		c5.9,0,11,1.1,15.1,3.2c1.2,0.6,1.7,2.2,1,3.4c-0.6,1.2-2.2,1.7-3.4,1c-3.4-1.8-7.6-2.7-12.7-2.7c-12.3,0-19.5,10.5-21.1,17.2
		c-0.8,3.2-3.6,5.4-6.9,5.4c-2.3,0-4.3-1-5.7-2.8c-1.4-1.8-1.8-4-1.2-6.2c3.1-11.2,15.2-28,35.5-28c23.3,0,29.7,12.1,30,12.6
		c0.5,1,0.3,2.1-0.5,2.9L5.6,102.1c-0.8,0.8-0.8,2.1,0,3c0.8,0.8,2.1,0.8,3,0l70-70c0.6-0.6,1.6-0.9,2.4-0.6
		c0.9,0.2,1.5,0.9,1.8,1.8C83,37,87.2,54.7,72.1,66.6c-11.3,8.9-17,15.3-17,19c0,1.4-1.1,2.5-2.5,2.5s-2.5-1.1-2.5-2.5
		c0-5.7,5.7-12.5,19-23c8.2-6.4,9.5-15,9.4-20.3l-66.3,66.3C10.7,110,8.9,110.7,7.1,110.7z"/>
	<path class="st0" d="M53.6,117.1c-8.1,0-13.9-1.9-17-5.7c-3.1-3.7-2.5-7.8-2.4-8.2c0.2-1.4,1.5-2.3,2.9-2c1.4,0.2,2.3,1.5,2,2.9
		c0,0.1-0.3,2.2,1.4,4.2c2.2,2.5,6.7,3.9,13.1,3.9c16.5,0,17.5-12.7,17.5-14.3c-0.2-2-0.9-13.5,12.5-32.6
		c12.8-18.3,3.3-34.6,2.9-35.3c-0.6-1-0.4-2.3,0.4-3.1l18.3-18.3c0.8-0.8,0.8-2.1,0-3c-0.8-0.8-2.1-0.8-3,0L92,15.7
		c-1,1-2.6,1-3.5,0s-1-2.6,0-3.5L98.6,2.1c2.8-2.8,7.3-2.8,10,0c2.8,2.8,2.8,7.3,0,10L91.7,29.1c2.5,5.3,8.3,21.3-4,39
		C74.6,86.7,76,97.1,76.1,97.2c0,0.1,0,0.3,0,0.4C76.1,97.8,75.8,117.1,53.6,117.1z"/>
</g>
</svg>
