<?xml version="1.0" encoding="utf-8"?>
<!-- Generator: Adobe Illustrator 19.1.0, SVG Export Plug-In . SVG Version: 6.00 Build 0)  -->
<svg version="1.1" id="Layer_1" xmlns="http://www.w3.org/2000/svg" xmlns:xlink="http://www.w3.org/1999/xlink" x="0px" y="0px"
	 viewBox="0 0 122.2 155.3" style="enable-background:new 0 0 122.2 155.3;" xml:space="preserve">
<style type="text/css">
	.st0{fill:#3F6EB6;}
</style>
<g>
	<path class="st0" d="M61.1,0C34,0,12,22,12,49c0,27,22,49,49,49c27,0,49-22,49-49C110.1,22,88.1,0,61.1,0z M61.1,82.8
		c-18.6,0-33.8-15.2-33.8-33.8c0-18.6,15.2-33.8,33.8-33.8c18.6,0,33.8,15.2,33.8,33.8C94.9,67.7,79.7,82.8,61.1,82.8z"/>
	<path class="st0" d="M103.9,98c-2.8-3.1-7.6-3.4-10.8-0.6c-3.1,2.8-3.4,7.6-0.6,10.8c7.6,8.5,12.3,21.8,14.4,40.4
		c0.4,3.9,3.7,6.8,7.6,6.8c0.3,0,0.6,0,0.9-0.1c4.2-0.5,7.2-4.3,6.7-8.4C119.6,124.9,113.7,108.9,103.9,98z"/>
	<path class="st0" d="M7.6,155.3c3.8,0,7.1-2.9,7.6-6.8c2.1-18.7,6.8-31.9,14.4-40.4c2.8-3.1,2.5-8-0.6-10.8
		c-3.1-2.8-8-2.5-10.8,0.6c-9.7,11-15.7,26.9-18.2,48.8c-0.5,4.2,2.5,8,6.7,8.4C7,155.3,7.3,155.3,7.6,155.3z"/>
</g>
</svg>
