<?xml version="1.0" encoding="utf-8"?>
<!-- Generator: Adobe Illustrator 21.1.0, SVG Export Plug-In . SVG Version: 6.00 Build 0)  -->
<svg version="1.1" id="Layer_7" xmlns="http://www.w3.org/2000/svg" xmlns:xlink="http://www.w3.org/1999/xlink" x="0px" y="0px"
	 viewBox="0 0 94.7 87.7" style="enable-background:new 0 0 94.7 87.7;" xml:space="preserve">
<style type="text/css">
	.st0{fill:#FFFFFF;}
</style>
<g>
	<path class="st0" d="M53.1,44.8H18.1c-1.4,0-2.5,1.1-2.5,2.5c0,1.4,1.1,2.5,2.5,2.5h35.1c1.4,0,2.5-1.1,2.5-2.5
		C55.6,45.9,54.5,44.8,53.1,44.8z"/>
	<path class="st0" d="M32.9,55.9H18.1c-1.4,0-2.5,1.1-2.5,2.5c0,1.4,1.1,2.5,2.5,2.5h14.9c1.4,0,2.5-1.1,2.5-2.5
		C35.4,57,34.3,55.9,32.9,55.9z"/>
	<path class="st0" d="M32.9,67H18.1c-1.4,0-2.5,1.1-2.5,2.5c0,1.4,1.1,2.5,2.5,2.5h14.9c1.4,0,2.5-1.1,2.5-2.5
		C35.4,68.1,34.3,67,32.9,67z"/>
	<path class="st0" d="M53.1,16H18.1c-1.4,0-2.5,1.1-2.5,2.5v15.8c0,1.4,1.1,2.5,2.5,2.5h35.1c1.4,0,2.5-1.1,2.5-2.5V18.5
		C55.6,17.1,54.5,16,53.1,16z M50.6,31.8H20.6V21h30.1V31.8z"/>
	<path class="st0" d="M53.1,55.9H41.5c-1.4,0-2.5,1.1-2.5,2.5V70c0,1.4,1.1,2.5,2.5,2.5h11.6c1.4,0,2.5-1.1,2.5-2.5V58.4
		C55.6,57,54.5,55.9,53.1,55.9z M50.6,67.5H44v-6.6h6.6V67.5z"/>
	<path class="st0" d="M94.7,19.8c0-4.5-3.7-8.2-8.2-8.2c-4.5,0-8.2,3.7-8.2,8.2v50.6c0,1.4,1.1,2.5,2.5,2.5c1.4,0,2.5-1.1,2.5-2.5
		V19.8c0-1.7,1.4-3.2,3.2-3.2c1.8,0,3.2,1.4,3.2,3.2c0,0.1,0,53.6,0,53.6c0,5.1-4.2,9.3-9.3,9.3c-5.2,0-9.4-4.2-9.4-9.3V2.5
		C71,1.1,69.9,0,68.5,0h-66C1.1,0,0,1.1,0,2.5v82.7c0,1.4,1.1,2.5,2.5,2.5h77.9c0,0,0,0,0,0c0,0,0,0,0,0c7.9,0,14.3-6.4,14.3-14.3
		C94.7,73.4,94.7,20,94.7,19.8z M5,5h61v68.4c0,3.6,1.3,6.8,3.5,9.3H5V5z"/>
</g>
</svg>
