<?xml version="1.0" encoding="utf-8"?>
<!-- Generator: Adobe Illustrator 21.1.0, SVG Export Plug-In . SVG Version: 6.00 Build 0)  -->
<svg version="1.1" id="Layer_7" xmlns="http://www.w3.org/2000/svg" xmlns:xlink="http://www.w3.org/1999/xlink" x="0px" y="0px"
	 viewBox="0 0 107 107" style="enable-background:new 0 0 107 107;" xml:space="preserve">
<style type="text/css">
	.st0{fill:none;stroke:#3F6BB4;stroke-width:4;stroke-linejoin:round;stroke-miterlimit:10;}
	.st1{fill:#D3E4F4;stroke:#3F6BB4;stroke-width:4;stroke-linejoin:round;stroke-miterlimit:10;}
</style>
<g>
	<g>
		<path class="st0" d="M66.5,3.7l-3.7,26.7c1.7,0.7,3.3,1.6,4.8,2.6l19.8-18.3C81.4,9.6,74.3,5.8,66.5,3.7z"/>
		<path class="st1" d="M95.4,23.6L75.5,41.9c1.8,3.5,2.9,7.4,2.9,11.5c0,7.5-3.3,14.1-8.5,18.7L82.5,96C96.1,86.7,105,71.2,105,53.5
			C105,42.3,101.4,32,95.4,23.6z"/>
		<path class="st0" d="M39.4,33c3.4-2.3,7.3-3.8,11.6-4.3l3.7-26.7c-0.4,0-0.8-0.1-1.2-0.1c-13,0-24.8,4.8-33.9,12.8L39.4,33z"/>
		<path class="st0" d="M59.3,77.6c-1.9,0.4-3.8,0.7-5.8,0.7c-13.7,0-24.9-11.1-24.9-24.9c0-4.2,1-8.1,2.9-11.6L11.6,23.6
			C5.6,32,2,42.3,2,53.5C2,81.9,25.1,105,53.5,105c6.5,0,12.7-1.3,18.5-3.5L59.3,77.6z"/>
	</g>
</g>
</svg>
