<?xml version="1.0" encoding="utf-8"?>
<!-- Generator: Adobe Illustrator 21.1.0, SVG Export Plug-In . SVG Version: 6.00 Build 0)  -->
<svg version="1.1" id="Layer_7" xmlns="http://www.w3.org/2000/svg" xmlns:xlink="http://www.w3.org/1999/xlink" x="0px" y="0px"
	 viewBox="0 0 70.8 105.3" style="enable-background:new 0 0 70.8 105.3;" xml:space="preserve">
<style type="text/css">
	.st0{fill:#3F6BB4;}
</style>
<g>
	<path class="st0" d="M25,77.9h-7.5c-1.8,0-3.3,1.5-3.3,3.3v7.5c0,1.8,1.5,3.3,3.3,3.3H25c1.8,0,3.3-1.5,3.3-3.3v-7.5
		C28.3,79.4,26.8,77.9,25,77.9z M26.6,88.6c0,0.9-0.7,1.7-1.7,1.7h-7.3c-0.9,0-1.7-0.7-1.7-1.7v-7.3c0-0.9,0.7-1.7,1.7-1.7h7.3
		c0.9,0,1.7,0.7,1.7,1.7V88.6z"/>
	<path class="st0" d="M25,59h-7.5c-1.8,0-3.3,1.5-3.3,3.3v7.5c0,1.8,1.5,3.3,3.3,3.3H25c1.8,0,3.3-1.5,3.3-3.3v-7.5
		C28.3,60.5,26.8,59,25,59z M26.6,69.7c0,0.9-0.7,1.7-1.7,1.7h-7.3c-0.9,0-1.7-0.7-1.7-1.7v-7.3c0-0.9,0.7-1.7,1.7-1.7h7.3
		c0.9,0,1.7,0.7,1.7,1.7V69.7z"/>
	<path class="st0" d="M26.6,44v6.9c0,0.9-0.7,1.7-1.7,1.7h-7.3c-0.9,0-1.7-0.7-1.7-1.7v-7.3c0-0.9,0.7-1.7,1.7-1.7h5.8
		c0.2-0.3,0.5-0.5,0.7-0.7c0.3-0.4,0.7-0.7,1-1l0,0h-7.5c-1.8,0-3.3,1.5-3.3,3.3V51c0,1.8,1.5,3.3,3.3,3.3H25c1.8,0,3.3-1.5,3.3-3.3
		v-7.5c0-0.4-0.1-0.8-0.2-1.1C27.6,42.8,27.1,43.4,26.6,44z"/>
	<path class="st0" d="M20,51.3c0,0-0.5-3.7-2.8-5.1c0.8-0.1,1.3-1.5,1.3-2.3c1.2,0.9,2.4,3.1,2.3,3.6c0.4-1.5,2.4-4.2,3.9-5.7
		c1.8-1.9,3.6-3.4,5.6-4.6c-0.1,0.6,0.3,1.1,1,1.5c-2,1.4-4,3-5.7,5.2c-1.7,2.1-2.7,4.4-3.4,6.4C21,50.2,20,51.3,20,51.3z"/>
	<path class="st0" d="M26.6,25.1V32c0,0.9-0.7,1.7-1.7,1.7h-7.3c-0.9,0-1.7-0.7-1.7-1.7v-7.3c0-0.9,0.7-1.7,1.7-1.7h5.8
		c0.2-0.3,0.5-0.5,0.7-0.7c0.3-0.4,0.7-0.7,1-1l0,0h-7.5c-1.8,0-3.3,1.5-3.3,3.3v7.5c0,1.8,1.5,3.3,3.3,3.3H25
		c1.8,0,3.3-1.5,3.3-3.3v-7.5c0-0.4-0.1-0.8-0.2-1.1C27.6,23.9,27.1,24.5,26.6,25.1z"/>
	<path class="st0" d="M20,32.5c0,0-0.5-3.7-2.8-5.1c0.8-0.1,1.3-1.5,1.3-2.3c1.2,0.9,2.4,3.1,2.3,3.6c0.4-1.5,2.4-4.2,3.9-5.7
		c1.8-1.9,3.6-3.4,5.6-4.6c-0.1,0.6,0.3,1.1,1,1.5c-2,1.4-4,3-5.7,5.2c-1.7,2.1-2.7,4.4-3.4,6.4C21,31.4,20,32.5,20,32.5z"/>
	<path class="st0" d="M55.8,29.5H33.9c-0.5,0-0.8-0.4-0.8-0.8V28c0-0.5,0.4-0.8,0.8-0.8h21.9c0.5,0,0.8,0.4,0.8,0.8v0.7
		C56.6,29.1,56.3,29.5,55.8,29.5z"/>
	<path class="st0" d="M55.8,48.4H33.9c-0.5,0-0.8-0.4-0.8-0.8v-0.7c0-0.5,0.4-0.8,0.8-0.8h21.9c0.5,0,0.8,0.4,0.8,0.8v0.7
		C56.6,48,56.3,48.4,55.8,48.4z"/>
	<path class="st0" d="M55.8,67.3H33.9c-0.5,0-0.8-0.4-0.8-0.8v-0.7c0-0.5,0.4-0.8,0.8-0.8h21.9c0.5,0,0.8,0.4,0.8,0.8v0.7
		C56.6,66.9,56.3,67.3,55.8,67.3z"/>
	<path class="st0" d="M55.8,86.1H33.9c-0.5,0-0.8-0.4-0.8-0.8v-0.7c0-0.5,0.4-0.8,0.8-0.8h21.9c0.5,0,0.8,0.4,0.8,0.8v0.7
		C56.6,85.8,56.3,86.1,55.8,86.1z"/>
	<path class="st0" d="M62.5,8.5H50.2l1.2,4.7h10.5c2.3,0,4.2,1.9,4.2,4.2v79c0,2.3-1.9,4.2-4.2,4.2h-53c-2.3,0-4.2-1.9-4.2-4.2v-79
		c0-2.3,1.9-4.2,4.2-4.2h10.5l1.2-4.7H8.3C3.7,8.5,0,12.2,0,16.8v80.1c0,4.6,3.7,8.3,8.3,8.3h54.2c4.6,0,8.3-3.7,8.3-8.3V16.8
		C70.8,12.2,67.1,8.5,62.5,8.5z"/>
	<path class="st0" d="M47.2,4.7h-4.9C41.7,2,38.8,0,35.4,0c-3.4,0-6.3,2-6.9,4.7h-4.9l-2.4,9.4h28.3L47.2,4.7z M35.4,2.4
		c2.1,0,3.8,1,4.4,2.4H31C31.6,3.3,33.3,2.4,35.4,2.4z"/>
</g>
</svg>
