<?xml version="1.0" encoding="utf-8"?>
<!-- Generator: Adobe Illustrator 19.1.0, SVG Export Plug-In . SVG Version: 6.00 Build 0)  -->
<svg version="1.1" id="Ñëîé_1" xmlns="http://www.w3.org/2000/svg" xmlns:xlink="http://www.w3.org/1999/xlink" x="0px" y="0px"
	 viewBox="0 0 722.8 722.8" style="enable-background:new 0 0 722.8 722.8;" xml:space="preserve">
<style type="text/css">
	.st0{fill:#FFFFFF;}
</style>
<g>
	<path class="st0" d="M478.9,512.2L478.9,512.2c0-9.5-4.1-18.6-11.2-24.9L340.6,374c-7.5-6.7-7.5-18.5,0-25.2l127.2-113.3
		c7.1-6.3,11.2-15.4,11.2-24.9v0c0-28.8-34-44.1-55.5-24.9L255.7,335.1c-15.8,14-15.8,38.7,0,52.7l167.7,149.4
		C444.9,556.3,478.9,541,478.9,512.2z"/>
	<path class="st0" d="M361.4,722.8c199.6,0,361.4-161.8,361.4-361.4S561,0,361.4,0S0,161.8,0,361.4S161.8,722.8,361.4,722.8z
		 M141.9,141.9C200.6,83.3,278.5,51,361.4,51c82.9,0,160.9,32.3,219.5,90.9c58.6,58.6,90.9,136.6,90.9,219.5
		c0,82.9-32.3,160.9-90.9,219.5c-58.6,58.6-136.6,90.9-219.5,90.9c-82.9,0-160.9-32.3-219.5-90.9C83.3,522.3,51,444.3,51,361.4
		C51,278.5,83.3,200.6,141.9,141.9z"/>
</g>
</svg>
