<?xml version="1.0" encoding="utf-8"?>
<!-- Generator: Adobe Illustrator 19.1.0, SVG Export Plug-In . SVG Version: 6.00 Build 0)  -->
<svg version="1.1" id="Camada_3" xmlns="http://www.w3.org/2000/svg" xmlns:xlink="http://www.w3.org/1999/xlink" x="0px" y="0px"
	 viewBox="0 0 125.2 114" style="enable-background:new 0 0 125.2 114;" xml:space="preserve">
<style type="text/css">
	.st0{fill:#8A4196;}
</style>
<g>
	<path class="st0" d="M62.1,114c-6.3,0-11.5-5.2-11.5-11.5S55.7,91,62.1,91c2.3,0,4.5,0.7,6.4,2c1.1,0.8,1.4,2.3,0.7,3.5
		c-0.8,1.1-2.3,1.4-3.5,0.7c-1.1-0.7-2.3-1.1-3.6-1.1c-3.6,0-6.5,2.9-6.5,6.5s2.9,6.5,6.5,6.5s6.5-2.9,6.5-6.5l0-0.5
		c0-1.3,0.9-2.3,2.2-2.5c21.4-2.6,40.1-16.4,49.1-36c-8.1-17.7-24.2-30.8-43.2-35c-1.3-0.3-2.2-1.6-1.9-3c0.3-1.3,1.6-2.2,3-1.9
		c20.9,4.7,38.5,19.2,47.1,38.9c0.3,0.6,0.3,1.4,0,2c-9.2,21.1-28.8,36.2-51.5,39.7C72.6,109.7,67.8,114,62.1,114z"/>
	<path class="st0" d="M42.3,101.9c-0.3,0-0.5,0-0.8-0.1C23,95.9,8,82.3,0.2,64.5c-0.3-0.6-0.3-1.4,0-2c9.5-21.8,29.9-37,53.4-40
		L53,10.1c-0.1-2.6,0.8-5.2,2.6-7.1c1.8-1.9,4.3-3,6.9-3c2.6,0,5.2,1.1,7,3c1.8,1.9,2.7,4.5,2.6,7.2l-4.3,63.5
		c-0.2,3-2.7,5.3-5.7,5.3c-3,0-5.5-2.4-5.7-5.4l-1.6-28.9c-7.4,3.2-12.3,10.6-12.3,18.8c0,11.3,9.2,20.5,20.5,20.5
		s20.5-9.2,20.5-20.5c0-6.9-3.5-13.4-9.3-17.2c-1.2-0.8-1.5-2.3-0.7-3.5c0.8-1.2,2.3-1.5,3.5-0.7c7.2,4.7,11.5,12.7,11.5,21.3
		C88.6,77.6,77.1,89,63.1,89S37.6,77.6,37.6,63.5c0-11.6,7.8-21.7,19-24.7c1.3-0.3,2.7,0.4,3,1.7c0.1,0.2,0.1,0.4,0.1,0.6l1.7,32.2
		c0,0.4,0.3,0.7,0.7,0.7c0.4,0,0.7-0.3,0.7-0.6l4.3-63.5c0.1-1.3-0.3-2.5-1.2-3.4S63.8,5,62.5,5c-1.3,0-2.4,0.5-3.3,1.4
		c-0.9,0.9-1.3,2.1-1.2,3.4l0.8,14.9c0,0.7-0.2,1.4-0.7,1.9c-0.5,0.5-1.1,0.8-1.8,0.8l-0.9,0c-21.9,2.3-41,16.1-50.2,36.1
		c7.3,16,21,28.2,37.8,33.5c1.3,0.4,2,1.8,1.6,3.1C44.3,101.2,43.3,101.9,42.3,101.9z"/>
</g>
</svg>
