<?xml version="1.0" encoding="utf-8"?>
<!-- Generator: Adobe Illustrator 19.1.0, SVG Export Plug-In . SVG Version: 6.00 Build 0)  -->
<svg version="1.1" id="Camada_3" xmlns="http://www.w3.org/2000/svg" xmlns:xlink="http://www.w3.org/1999/xlink" x="0px" y="0px"
	 viewBox="0 0 123.7 117.7" style="enable-background:new 0 0 123.7 117.7;" xml:space="preserve">
<style type="text/css">
	.st0{fill:#834098;}
</style>
<g>
	<path class="st0" d="M60.8,88.6c-6.3,0-12.3-1.9-17.4-5.5c-0.1,0-0.1-0.1-0.2-0.2c-0.5-0.5-0.8-1.1-0.9-1.8c0-0.7,0.2-1.4,0.7-1.9
		l70.7-70.7c0.8-0.8,0.8-2.1,0-3c-0.8-0.8-2.1-0.8-3,0L89.3,27.1c-0.7,0.7-1.8,0.9-2.7,0.6c-7.9-3.4-16.2-5.1-24.8-5.1
		c-24.2,0-46.3,14.1-56.6,36c3.7,7.9,9.1,15,15.7,20.7c1,0.9,1.2,2.5,0.2,3.5c-0.9,1-2.5,1.2-3.5,0.2C10.2,76.7,4.2,68.5,0.2,59.6
		c-0.3-0.6-0.3-1.4,0-2c10.9-24.3,35.1-40,61.6-40c8.7,0,17.1,1.6,25.1,4.8l20.4-20.4c2.8-2.8,7.3-2.8,10,0c2.8,2.8,2.8,7.3,0,10
		L48.9,80.6c3.7,2,7.8,3,12,3c14.1,0,25.5-11.4,25.5-25.5c0-2.2-0.3-4.3-0.8-6.4c-0.3-1.3,0.5-2.7,1.8-3c1.3-0.3,2.7,0.5,3,1.8
		c0.6,2.5,1,5.1,1,7.7C91.3,74.9,77.7,88.6,60.8,88.6z"/>
	<path class="st0" d="M8.8,117.7c-1.9,0-3.7-0.7-5-2.1c-2.8-2.8-2.8-7.3,0-10l69.6-69.6c-3.8-2.2-8.1-3.3-12.6-3.3
		c-14.1,0-25.5,11.4-25.5,25.5c0,2.2,0.3,4.4,0.8,6.5c0.4,1.3-0.4,2.7-1.8,3.1c-1.3,0.3-2.7-0.4-3.1-1.8c-0.7-2.5-1-5.1-1-7.8
		c0-16.8,13.7-30.5,30.5-30.5c6.5,0,12.8,2,18.1,5.9c0.6,0.4,1,1.1,1,1.8c0.1,0.7-0.2,1.4-0.7,2L7.4,109.1c-0.8,0.8-0.8,2.1,0,3
		c0.8,0.8,2.2,0.8,3,0l22.6-22.6c0.2-0.2,0.4-0.4,0.7-0.5c0.7-0.4,1.5-0.3,2.2,0c8.2,3.7,16.9,5.6,26,5.6c24.2,0,46.3-14.1,56.6-36
		c-3.9-8.3-9.6-15.7-16.7-21.6c-1.1-0.9-1.2-2.5-0.3-3.5c0.9-1.1,2.5-1.2,3.5-0.3c7.9,6.6,14.3,15,18.5,24.4c0.3,0.6,0.3,1.4,0,2
		c-10.9,24.3-35.1,40-61.6,40c-9.2,0-18.1-1.8-26.5-5.4l-21.4,21.4C12.5,117,10.7,117.7,8.8,117.7z"/>
</g>
</svg>
