<?xml version="1.0" encoding="utf-8"?>
<!-- Generator: Adobe Illustrator 19.1.0, SVG Export Plug-In . SVG Version: 6.00 Build 0)  -->
<svg version="1.1" id="Layer_1" xmlns="http://www.w3.org/2000/svg" xmlns:xlink="http://www.w3.org/1999/xlink" x="0px" y="0px"
	 viewBox="0 0 505.2 646.8" style="enable-background:new 0 0 505.2 646.8;" xml:space="preserve">
<style type="text/css">
	.st0{fill:#8A4196;}
</style>
<g>
	<g>
		<path class="st0" d="M201.1,51.1c3.2,0,6.4,0.9,9.2,2.5c58.8,34.1,169.9,98.7,175.9,102.2c4.1,2.6,7,6.7,8,11.5
			c0.1,0.4,0.2,0.8,0.3,1.2c2.4,8.3,0.4,17.1-5.2,23.5l-73.7,84c-5.3,6.1-6.5,14.7-3,21.9c3.4,6.9,10.4,11.2,18,11.2
			c0.4,0,0.7,0,1.1,0l134-7.5c0.3,0,0.7,0,1,0c5,0,9.8,2,13.2,5.6c3.7,3.8,5.6,9,5.2,14.4l-16.2,198.7c-0.8,9.5-8.8,16.9-18.3,16.9
			c-0.5,0-1,0-1.5-0.1c-10.1-0.8-17.7-9.7-16.9-19.9l12.6-154.8c0.5-5.8-1.6-11.4-5.6-15.6c-3.8-3.9-8.9-6-14.3-6
			c-0.4,0-0.7,0-1.1,0l-51.9,2.9c-6.7,0.4-12.8,4.1-16.1,9.9c-3.4,5.8-3.6,12.9-0.7,18.9c11.9,24.3,18,50.4,18,77.7
			c0,38.1-12.2,74.7-34.7,105l-21.6-21.6c17-24.4,26.1-53.4,26.1-83.4c0-80.7-65.7-146.3-146.3-146.3c-30,0-59,9.2-83.4,26.1
			l-21.6-21.6c22.5-16.7,48.6-27.8,76.4-32.3c4.6-0.7,8.8-3.1,11.8-6.5l95.1-108.3c3.9-4.5,5.7-10.5,4.7-16.4
			c-1-5.9-4.5-11.1-9.7-14.1L216,99.4c-3.1-1.8-6.6-2.7-10-2.7c-4.8,0-9.6,1.7-13.3,5.1l-65.2,58.1c-3.4,3-7.7,4.7-12.2,4.7
			c-5.3,0-10.2-2.2-13.8-6.2c-3.3-3.7-4.9-8.4-4.6-13.3c0.3-4.9,2.5-9.4,6.1-12.7l86-76.7C192.3,52.7,196.6,51.1,201.1,51.1
			L201.1,51.1 M201.1,31.1c-9.2,0-18.4,3.3-25.6,9.8l-86,76.7c-15.8,14.1-17.2,38.4-3.1,54.3c7.6,8.5,18.1,12.8,28.7,12.8
			c9.1,0,18.2-3.2,25.6-9.8l65.2-58.1l53.9,31.3l-95.1,108.3c-39.4,6.4-74.9,24.6-102.8,50.8l49.7,49.7
			c22.4-20.4,52.3-32.9,84.9-32.9c69.7,0,126.3,56.7,126.3,126.3c0,32.7-12.5,62.5-32.9,84.9l49.7,49.7
			c33.1-35.2,53.4-82.5,53.4-134.6c0-31-7.2-60.4-20-86.5l51.9-2.9l-12.6,154.8c-1.7,21.2,14,39.7,35.2,41.4
			c1.1,0.1,2.1,0.1,3.2,0.1c19.8,0,36.6-15.2,38.3-35.3l16.2-198.7c0.9-11.1-3-22-10.8-29.9c-7.3-7.4-17.2-11.6-27.6-11.6
			c-0.7,0-1.4,0-2.1,0.1l-134,7.5l73.7-84c10.5-12,13.5-27.9,9.4-42.2c-2.1-9.8-8.1-18.6-17.1-24.3
			c-0.3-0.2-176.2-102.4-176.2-102.4C214.4,32.8,207.8,31.1,201.1,31.1L201.1,31.1z"/>
	</g>
	<g>
		<path class="st0" d="M423.1,20c24.4,0,44.3,19.9,44.3,44.3c0,24.4-19.9,44.3-44.3,44.3c-24.4,0-44.3-19.9-44.3-44.3
			C378.8,39.9,398.7,20,423.1,20 M423.1,0c-35.5,0-64.3,28.8-64.3,64.3c0,35.5,28.8,64.3,64.3,64.3c35.5,0,64.3-28.8,64.3-64.3
			C487.4,28.8,458.6,0,423.1,0L423.1,0z"/>
	</g>
	<g>
		<path class="st0" d="M44.6,360.3l22.2,22.2c-10.9,20.8-16.7,44-16.7,67.8c0,80.7,65.7,146.3,146.3,146.3
			c23.8,0,46.9-5.7,67.8-16.7l22.2,22.2c-10,5.9-20.5,10.8-31.4,14.7c-18.8,6.6-38.4,10-58.5,10c-47.2,0-91.5-18.4-124.8-51.7
			C38.4,541.7,20,497.4,20,450.3c0-20.1,3.3-39.8,10-58.5C33.8,380.8,38.7,370.3,44.6,360.3 M41.8,329.2C15.6,362.6,0,404.6,0,450.3
			c0,108.5,88,196.5,196.5,196.5c45.7,0,87.7-15.6,121.1-41.8l-50.2-50.2c-20.2,13.8-44.6,21.8-70.9,21.8
			c-69.7,0-126.3-56.7-126.3-126.3c0-26.3,8.1-50.7,21.8-70.9L41.8,329.2L41.8,329.2z"/>
	</g>
</g>
</svg>
