<?xml version="1.0" encoding="utf-8"?>
<!-- Generator: Adobe Illustrator 19.1.0, SVG Export Plug-In . SVG Version: 6.00 Build 0)  -->
<svg version="1.1" id="Layer_1" xmlns="http://www.w3.org/2000/svg" xmlns:xlink="http://www.w3.org/1999/xlink" x="0px" y="0px"
	 viewBox="0 0 505.2 772.1" style="enable-background:new 0 0 505.2 772.1;" xml:space="preserve">
<style type="text/css">
	.st0{fill:#8A4196;}
	.st1{fill:#FFFFFF;}
</style>
<g>
	<g>
		<path class="st0" d="M201.1,131c3.2,0,6.4,0.9,9.2,2.5c58.8,34.1,169.9,98.7,175.9,102.2c4.1,2.6,7,6.7,8,11.5
			c0.1,0.4,0.2,0.8,0.3,1.2c2.4,8.3,0.4,17.1-5.2,23.5l-73.7,84c-5.3,6.1-6.5,14.7-3,21.9c3.4,6.9,10.4,11.2,18,11.2
			c0.4,0,0.7,0,1.1,0l134-7.5c0.3,0,0.7,0,1,0c5,0,9.8,2,13.2,5.6c3.7,3.8,5.6,9,5.2,14.4l-16.2,198.7c-0.8,9.5-8.8,16.9-18.3,16.9
			c-0.5,0-1,0-1.5-0.1c-10.1-0.8-17.7-9.7-16.9-19.9l12.6-154.8c0.5-5.8-1.6-11.4-5.6-15.6c-3.8-3.9-8.9-6-14.3-6
			c-0.4,0-0.7,0-1.1,0l-51.9,2.9c-6.7,0.4-12.8,4.1-16.1,9.9c-3.4,5.8-3.6,12.9-0.7,18.9c11.9,24.3,18,50.4,18,77.7
			c0,38.1-12.2,74.7-34.7,105l-21.6-21.6c17-24.4,26.1-53.4,26.1-83.4c0-80.7-65.7-146.3-146.3-146.3c-30,0-59,9.2-83.4,26.1
			l-21.6-21.6c22.5-16.7,48.6-27.8,76.4-32.3c4.6-0.7,8.8-3.1,11.8-6.5l95.1-108.3c3.9-4.5,5.7-10.5,4.7-16.4
			c-1-5.9-4.5-11.1-9.7-14.1L216,179.3c-3.1-1.8-6.6-2.7-10-2.7c-4.8,0-9.6,1.7-13.3,5.1l-65.2,58.1c-3.4,3-7.7,4.7-12.2,4.7
			c-5.3,0-10.2-2.2-13.8-6.2c-3.3-3.7-4.9-8.4-4.6-13.3c0.3-4.9,2.5-9.4,6.1-12.7l86-76.7C192.3,132.6,196.6,131,201.1,131
			L201.1,131 M201.1,111c-9.2,0-18.4,3.3-25.6,9.8l-86,76.7c-15.8,14.1-17.2,38.4-3.1,54.3c7.6,8.5,18.1,12.8,28.7,12.8
			c9.1,0,18.2-3.2,25.6-9.8l65.2-58.1l53.9,31.3l-95.1,108.3c-39.4,6.4-74.9,24.6-102.8,50.8l49.7,49.7
			c22.4-20.4,52.3-32.9,84.9-32.9c69.7,0,126.3,56.7,126.3,126.3c0,32.7-12.5,62.5-32.9,84.9l49.7,49.7
			c33.1-35.2,53.4-82.5,53.4-134.6c0-31-7.2-60.4-20-86.5l51.9-2.9l-12.6,154.8c-1.7,21.2,14,39.7,35.2,41.4
			c1.1,0.1,2.1,0.1,3.2,0.1c19.8,0,36.6-15.2,38.3-35.3l16.2-198.7c0.9-11.1-3-22-10.8-29.9c-7.3-7.4-17.2-11.6-27.6-11.6
			c-0.7,0-1.4,0-2.1,0.1l-134,7.5l73.7-84c10.5-12,13.5-27.9,9.4-42.2c-2.1-9.8-8.1-18.6-17.1-24.3
			c-0.3-0.2-176.2-102.4-176.2-102.4C214.4,112.7,207.8,111,201.1,111L201.1,111z"/>
	</g>
	<g>
		<path class="st0" d="M423.1,99.9c24.4,0,44.3,19.9,44.3,44.3c0,24.4-19.9,44.3-44.3,44.3c-24.4,0-44.3-19.9-44.3-44.3
			C378.8,119.8,398.7,99.9,423.1,99.9 M423.1,79.9c-35.5,0-64.3,28.8-64.3,64.3c0,35.5,28.8,64.3,64.3,64.3
			c35.5,0,64.3-28.8,64.3-64.3C487.4,108.7,458.6,79.9,423.1,79.9L423.1,79.9z"/>
	</g>
	<g>
		<path class="st0" d="M44.6,440.2l22.2,22.2c-10.9,20.8-16.7,44-16.7,67.8c0,80.7,65.7,146.3,146.3,146.3
			c23.8,0,46.9-5.7,67.8-16.7l22.2,22.2c-10,5.9-20.5,10.8-31.4,14.7c-18.8,6.6-38.4,10-58.5,10c-47.2,0-91.5-18.4-124.8-51.7
			C38.4,621.6,20,577.3,20,530.1c0-20.1,3.3-39.8,10-58.5C33.8,460.7,38.7,450.2,44.6,440.2 M41.8,409.1C15.6,442.4,0,484.4,0,530.1
			c0,108.5,88,196.5,196.5,196.5c45.7,0,87.7-15.6,121.1-41.8l-50.2-50.2c-20.2,13.8-44.6,21.8-70.9,21.8
			c-69.7,0-126.3-56.7-126.3-126.3c0-26.3,8.1-50.7,21.8-70.9L41.8,409.1L41.8,409.1z"/>
	</g>
</g>
<g>
	<path class="st1" d="M256.2,764.6c-22.3,0-42.9-8.2-58.2-22.9c-15.3-14.9-23.8-35.1-23.8-56.9v-10.5c0-21.8,8.4-42,23.8-56.9
		c15.2-14.8,35.9-22.9,58.2-22.9c46.7,0,81.9,34.3,81.9,79.8v10.5C338.1,730.2,302.9,764.6,256.2,764.6z M256.2,532.9
		c-25,0-42.7-17.5-45.2-44.6L174.3,60.7c-1.3-15.6,3-29.7,12.2-39.7c8-8.7,19.4-13.5,32-13.5h75.5c12.9,0,24.6,5,32.9,14
		c9.2,10,13.6,23.9,12.3,39.2l-36.7,427.6C300,515,281.4,532.9,256.2,532.9z"/>
	<path class="st1" d="M293.9,15c24.1,0,39.8,19.9,37.7,45.1L295,487.7c-2.1,23.1-17.8,37.7-38.8,37.7c-21,0-35.6-14.7-37.7-37.7
		L181.8,60.1C179.7,34.9,194.4,15,218.5,15H293.9 M256.2,601.9c43,0,74.4,31.4,74.4,72.3v10.5c0,40.9-31.4,72.3-74.4,72.3
		c-41.9,0-74.4-31.4-74.4-72.3v-10.5C181.8,633.4,214.3,601.9,256.2,601.9 M293.9,0h-75.5c-14.7,0-28,5.7-37.5,15.9
		c-10.6,11.5-15.6,27.6-14.1,45.4L203.5,489c0,0,0,0.1,0,0.1c2.8,30.7,24,51.4,52.7,51.4c14.1,0,27.2-5.1,36.9-14.4
		c9.7-9.3,15.5-22.1,16.9-37c0,0,0-0.1,0-0.1l36.7-427.6c1.5-17.4-3.6-33.4-14.3-44.9C322.6,5.8,308.9,0,293.9,0L293.9,0z
		 M256.2,586.9c-24.2,0-46.7,8.9-63.4,25.1c-16.8,16.3-26,38.4-26,62.3v10.5c0,23.8,9.2,46,26,62.3c16.7,16.2,39.2,25.1,63.4,25.1
		c24.6,0,47.3-8.9,63.8-25.1c16.5-16.2,25.6-38.3,25.6-62.2v-10.5c0-23.9-9.1-46-25.6-62.2C303.5,595.9,280.8,586.9,256.2,586.9
		L256.2,586.9z"/>
</g>
<g>
	<g>
		<path class="st1" d="M256.2,747.1c-17.7,0-34-6.4-46-18c-11.9-11.5-18.5-27.3-18.5-44.3v-10.5c0-17,6.6-32.8,18.5-44.3
			c12-11.6,28.3-18,46-18c18,0,34.5,6.4,46.3,18c11.7,11.4,18.1,27.2,18.1,44.3v10.5c0,17.2-6.4,32.9-18.1,44.3
			C290.7,740.7,274.2,747.1,256.2,747.1z M256.2,515.4c-15.8,0-26.1-10.7-27.8-28.6L191.7,59.2c-0.9-10.7,1.8-20,7.6-26.3
			c4.7-5.1,11.3-7.9,19.1-7.9h75.5c8.1,0,15,2.9,20,8.4c5.9,6.4,8.6,15.6,7.8,25.9L285,486.8C283.4,504.4,272.4,515.4,256.2,515.4z"
			/>
		<path class="st0" d="M293.9,35c5.3,0,9.5,1.7,12.6,5.1c3.9,4.2,5.8,10.9,5.2,18.2l-36.7,427.6c-1.1,12.4-8,19.5-18.9,19.5
			c-13.2,0-17-10.6-17.8-19.5L201.7,58.4c-0.6-7.8,1.2-14.6,5-18.8c2.8-3.1,6.8-4.6,11.7-4.6H293.9 M256.2,621.9
			c31.5,0,54.4,22,54.4,52.3v10.5c0,30.3-22.9,52.3-54.4,52.3c-31,0-54.4-22.5-54.4-52.3v-10.5C201.8,644.4,225.2,621.9,256.2,621.9
			 M293.9,15h-75.5c-24.1,0-38.8,19.9-36.7,45.1l36.7,427.6c2.1,23.1,16.8,37.7,37.7,37.7c21,0,36.7-14.7,38.8-37.7l36.7-427.6
			C333.8,34.9,318,15,293.9,15L293.9,15z M256.2,601.9c-41.9,0-74.4,31.4-74.4,72.3v10.5c0,40.9,32.5,72.3,74.4,72.3
			c43,0,74.4-31.4,74.4-72.3v-10.5C330.6,633.4,299.2,601.9,256.2,601.9L256.2,601.9z"/>
	</g>
</g>
</svg>
