<?xml version="1.0" encoding="utf-8"?>
<!-- Generator: Adobe Illustrator 19.1.0, SVG Export Plug-In . SVG Version: 6.00 Build 0)  -->
<svg version="1.1" id="Icon" xmlns="http://www.w3.org/2000/svg" xmlns:xlink="http://www.w3.org/1999/xlink" x="0px" y="0px"
	 viewBox="0 0 233.9 545.2" style="enable-background:new 0 0 233.9 545.2;" xml:space="preserve">
<style type="text/css">
	.st0{fill:#904095;}
</style>
<path class="st0" d="M233.6,299.2c-7-30.3-22.8-91.9-31.2-125c-2.1-8.2-3.7-14.5-4.6-18.1c-4.4-17.5-29-21.6-47.1-23.2
	c-16.1-1.4-31.5-0.9-34.3-0.8c-2.7-0.1-17.5-0.2-32.9,1.5c-17.4,1.9-41.1,6.5-45.3,23.6c0,0.1,0,0.1,0,0.2
	C33.3,178,12.3,256.2,0.4,298.9c-1.8,6.4,2,13,8.3,14.8c1.1,0.3,2.2,0.4,3.2,0.4c5.3,0,10.1-3.5,11.6-8.8
	C35.3,263.1,56,186.2,61.2,163.8c1.4-1.1,7.7-4.9,28.4-6.8c13.8-1.3,26.5-1,26.6-1c0.3,0,0.6,0,0.9,0c0.1,0,13.2-0.6,27.6,0.4
	c22,1.5,28.6,5.4,30,6.4c0.9,3.7,2.5,9.7,4.4,17.3c8.5,33,24.2,94.4,31.1,124.4c1.5,6.5,7.9,10.5,14.4,9
	C231.1,312.1,235.1,305.6,233.6,299.2z"/>
<path class="st0" d="M198.5,298.2c-1.7-6.4-8.2-10.3-14.6-8.6c-6.4,1.7-10.3,8.2-8.6,14.6l14.8,56.6c-0.1,0-0.2,0.1-0.3,0.1
	l-25.9,0.1c-6.6,0-12,5.4-12,12v147.7c0,0.2,0,0.4,0,0.5H129V372.9c0-6.6-5.4-12-12-12c-6.6,0-12,5.4-12,12v148.3H83.1
	c0-0.2,0-0.3,0-0.5V373c0-6.6-5.3-12-12-12l-26-0.1c-0.1,0-0.2,0-0.3-0.1L58.7,303c1.5-6.4-2.4-12.9-8.9-14.5
	c-6.4-1.5-12.9,2.4-14.5,8.9l-14.4,60.2c-0.2,0.9-0.3,1.9-0.3,2.8c0,13.5,11,24.5,24.5,24.5l14,0.1v135.7c0,13.5,9.7,24.5,21.7,24.5
	h31.9c0.8,0,1.7-0.1,2.4-0.3c0.6,0.1,1.2,0.2,1.8,0.2c0.8,0,1.7-0.1,2.5-0.3c0.9,0.2,1.8,0.3,2.8,0.3h31.9c12,0,21.7-11,21.7-24.5
	V385l13.9-0.1c13.5,0,24.5-11,24.5-24.5c0-1-0.1-2-0.4-3L198.5,298.2z"/>
<path class="st0" d="M169.1,29.1c-13.3-22.5-39.7-32.7-64.8-28c-27.6,5-47.1,30.9-48.1,58.1c0,0.5-0.1,0.9-0.1,1.4
	c0.4,26.1,16.4,47.9,40.5,57.3c23.1,9.1,51.2,0.7,66.9-18.1C180,79.8,182.3,51.5,169.1,29.1z M146.2,83.2
	c-4.9,6.9-13.6,11.8-22.9,13.8c-8.7,1.9-18.5-0.5-26.8-5.7c-7.4-4.7-13-13-15.3-21.8c-1-3.6-1-4.8-1.1-8.9
	c0.1-9.5,3.5-18.3,9.9-25.1c6.5-7,15.5-11,24.2-11.6c9.8-0.7,19.2,2.4,26,8.1c4.3,3.6,6.3,6.2,8.8,10.5c1.3,2.2,2.1,4.2,2.6,5.5
	c0.5,1.3,0.8,2.5,1.1,3.8c0.1,0.5,0.8,4.1,0.8,3.6C154.9,66.2,152.5,74.3,146.2,83.2z"/>
</svg>
