<?xml version="1.0" encoding="utf-8"?>
<!-- Generator: Adobe Illustrator 19.1.0, SVG Export Plug-In . SVG Version: 6.00 Build 0)  -->
<svg version="1.1" id="Layer_1" xmlns="http://www.w3.org/2000/svg" xmlns:xlink="http://www.w3.org/1999/xlink" x="0px" y="0px"
	 viewBox="0 0 232.4 212.5" style="enable-background:new 0 0 232.4 212.5;" xml:space="preserve">
<style type="text/css">
	.st0{fill:#CF4A7B;}
</style>
<g>
	<path class="st0" d="M232.2,190c-0.2-0.9-1.1-1.5-2.1-1.3c-0.9,0.2-1.5,1.1-1.3,2.1c1.2,5.5-4.3,13.1-10.9,14.8
		c-4.4,1.1-9.6,0.1-13.5-2.5c-0.2-0.2-0.5-0.3-0.7-0.5c1.2-2.5,1.8-5.1,1.3-7.2c-0.8-3.5-3-4.7-4.9-4.3c-2.1,0.4-3.9,2.7-3.5,6.5
		c0.3,2,1.2,3.9,2.7,5.7c-1.8,2.6-4.3,4.8-6.7,5.5c-5.9,1.8-10-0.7-15-9.3c2.3-2.6,4.1-5.5,4.9-8.4c1-3.5,0.4-6.6-1.5-8.5
		l-44.2-44.2c0,0,0,0,0,0c-2.3-2.3-6.2-2.4-10.2-0.8c-13.1-20.6-21-42.7-19.7-56.1c0.5-5.3,1.4-8.1,3-9.3c1.1-0.8,3-0.9,5.5-0.3
		c0,0,0.1,0,0.1,0c0.1,0,0.2,0,0.3,0c0.1,0,0.3,0,0.4,0c0,0,0.1,0,0.1,0c0.2-0.1,0.3-0.1,0.5-0.2c0,0,0,0,0,0c0,0,0-0.1,0.1-0.1
		c0.1-0.1,0.2-0.2,0.3-0.4c0.1-0.1,0.1-0.2,0.1-0.3c0-0.1,0.1-0.1,0.1-0.2c0,0,0-0.1,0-0.1c0-0.1,0-0.2,0-0.4c0-0.1,0-0.2,0-0.3
		c0-0.1-0.1-0.2-0.1-0.3c0-0.1-0.1-0.2-0.2-0.3c0,0,0,0,0-0.1c-2.5-3.4-6.9-6.9-11-5.8c-3.7,1-6.1,5.3-7,12.9
		c-2.5,19.3,5.1,42.8,20.8,65.5c-0.3,0.3-0.7,0.6-1,0.9c-6.2,6.2-8.1,14.1-4.2,17.9c0,0,0,0,0,0l44.2,44.2c1.3,1.3,3.2,2,5.3,2
		c3.4,0,7.3-1.7,11-4.8c3.6,5.9,7.9,10.8,14.3,10.8c1.3,0,2.7-0.2,4.2-0.6c3.1-0.9,6.1-3.4,8.3-6.5c0.2,0.1,0.4,0.3,0.6,0.4
		c4.7,3.2,10.9,4.3,16.2,3C227.1,206.7,233.8,197.2,232.2,190z M102.6,76.4c0.8-5.9,2.3-9.4,4.5-10c1.2-0.3,2.8,0.3,4.3,1.4
		c-1.3,0.2-2.5,0.6-3.4,1.3c-3.1,2.2-4,7-4.5,11.7c-1.4,14.1,6.6,36.9,20,58c-0.3,0.2-0.6,0.4-0.8,0.6
		C107.7,117.6,100.3,94.5,102.6,76.4z M121.3,144.8c0.2-0.2,0.4-0.3,0.6-0.5c1.2,1.6,2.4,3.2,3.6,4.8c0.3,0.4,0.8,0.7,1.4,0.7
		c0.4,0,0.7-0.1,1.1-0.4c0.7-0.6,0.9-1.7,0.3-2.4c-1.3-1.6-2.5-3.2-3.6-4.9c0.3-0.2,0.5-0.3,0.7-0.5c0.5,0.7,0.9,1.4,1.3,2.1
		c0.3,0.5,0.9,0.7,1.4,0.7c0.3,0,0.7-0.1,1-0.3c0.8-0.5,1-1.6,0.4-2.4c-0.4-0.5-0.7-1.1-1.1-1.6c1.1-0.4,2.1-0.6,3.1-0.6
		c1.2,0,2.2,0.3,2.8,1c1,1,1.3,2.9,0.6,5.2c-0.7,2.6-2.5,5.4-4.9,7.9c-4.5,4.5-10.8,6.5-13,4.3C115,155.8,116.2,149.9,121.3,144.8z
		 M161.3,202.1l-40-40c3.7-0.5,7.8-2.6,11.2-6c2.8-2.8,4.9-6.2,5.8-9.4c0.2-0.6,0.2-1.2,0.3-1.8l39.9,39.9c1,1,1.3,2.9,0.6,5.2
		c-0.7,2.6-2.5,5.4-4.9,7.9C169.2,202.9,163.3,204.2,161.3,202.1z M201.2,199.7c-0.6-0.9-1-1.9-1.1-2.8c-0.2-1.7,0.4-2.6,0.6-2.6
		c0,0,0,0,0,0c0.1,0,0.7,0.4,1,1.7C202,197,201.7,198.3,201.2,199.7z"/>
	<path class="st0" d="M104.5,139.8c0.8-0.4,1.2-1.5,0.7-2.3c-8.2-15.9-25.9-30.6-35-34.2c-6.5-2.5-12.3-1.7-16.3,2.3
		c-1,1-1.9,2.3-2.6,3.6c-7.3-2.5-17-0.7-25.5,4.8c-7.1,4.6-11.8,12.4-12.7,21c-0.8,7.5,1.6,14.7,6.5,19.5c0.3,0.3,0.8,0.5,1.2,0.5
		c0.4,0,0.9-0.2,1.2-0.5c0.7-0.7,0.7-1.8,0-2.4c-4.2-4.1-6.2-10.2-5.5-16.7c0.8-7.5,4.9-14.4,11.1-18.4c7.6-4.9,16.1-6.6,22.3-4.5
		c-1.2,4-1.1,8.6,0.4,12.5c2.4,6,5.9,7.1,8.3,6.3c2.7-1,4.8-4.9,2.7-11.4c-1.3-4-3.7-7.1-7.1-9.1c0.5-1,1.2-1.9,1.9-2.6
		c3-3,7.4-3.5,12.6-1.5c8.4,3.2,25.5,17.5,33.1,32.5C102.6,139.9,103.7,140.2,104.5,139.8z M58.3,120.8c1.4,4.4,0.3,6.8-0.6,7.1
		c-0.8,0.3-2.6-0.9-3.9-4.3c-1.1-2.7-1.3-6.4-0.5-9.7C55.7,115.5,57.3,117.8,58.3,120.8z"/>
	<path class="st0" d="M99.5,122.3c1.4,0,2.7-0.5,3.6-1.4c2.1-2.1,1.8-5.9-0.8-8.5c-2.5-2.5-6.4-2.8-8.5-0.8
		c-2.1,2.1-1.8,5.9,0.8,8.5C95.9,121.5,97.7,122.3,99.5,122.3z M96.2,114c0.3-0.3,0.8-0.4,1.1-0.4c0.8,0,1.8,0.4,2.5,1.2
		c1.2,1.2,1.5,2.9,0.8,3.6c-0.3,0.3-0.8,0.4-1.1,0.4c-0.8,0-1.8-0.4-2.5-1.2C95.8,116.5,95.4,114.8,96.2,114z"/>
	<path class="st0" d="M136.2,122.7c0.3,0.3,0.8,0.5,1.2,0.5c0.1,0,0.3,0,0.4-0.1c0.6-0.2,1.1-0.6,1.2-1.2l2.8-10.3
		c0.2-0.6,0-1.2-0.4-1.7c-0.4-0.4-1.1-0.6-1.7-0.4l-10.3,2.8c-0.6,0.2-1.1,0.6-1.2,1.2c-0.2,0.6,0,1.2,0.4,1.7L136.2,122.7z
		 M137.8,113.6l-1.2,4.6l-3.3-3.4L137.8,113.6z"/>
	<path class="st0" d="M79.2,79.4c-0.5,0.3-0.8,0.9-0.8,1.5L79,91.6c0,0.6,0.4,1.2,0.9,1.4c0.2,0.1,0.5,0.2,0.8,0.2
		c0.3,0,0.7-0.1,0.9-0.3l9-5.8c0.5-0.3,0.8-0.9,0.8-1.5c0-0.6-0.4-1.2-0.9-1.4l-9.5-4.9C80.4,79,79.7,79,79.2,79.4z M86.2,85.8
		l-4,2.6L82,83.7L86.2,85.8z"/>
	<path class="st0" d="M111.3,145.4c0-0.5-0.3-1-0.7-1.3c-0.4-0.3-0.9-0.4-1.4-0.3l-8.2,2c-0.6,0.2-1.1,0.7-1.3,1.3
		c-0.1,0.6,0.1,1.3,0.7,1.7l8.6,6.4c0.3,0.2,0.7,0.3,1,0.3c0,0,0,0,0,0c0.9,0.1,1.8-0.8,1.8-1.7c0-0.2,0-0.4-0.1-0.6L111.3,145.4z
		 M105.3,148.3l2.7-0.7l0.1,2.7L105.3,148.3z"/>
	<path class="st0" d="M75,144.9c-0.4-0.3-0.9-0.4-1.4-0.3l-8.2,2c-0.5,0.1-0.9,0.4-1.1,0.9c-0.2,0.4-0.3,1-0.1,1.4l2.7,7
		c0.3,0.7,0.9,1.1,1.6,1.1c0.1,0,0.1,0,0.2,0l5.8-0.6c0.9-0.1,1.6-0.9,1.5-1.8l-0.3-8.5C75.6,145.7,75.4,145.2,75,144.9z
		 M69.6,153.5l-1.5-4l4.3-1.1l0.2,4.7L69.6,153.5z"/>
	<path class="st0" d="M28,63.1l2.6,8c0.2,0.5,0.5,0.9,1,1c0.2,0.1,0.4,0.1,0.7,0.1c0.3,0,0.5-0.1,0.7-0.2l6.8-3.2
		c0.7-0.3,1.1-1.1,1-1.9l-1-5.8c-0.2-0.9-1-1.5-1.9-1.4l-8.4,0.9c-0.5,0.1-1,0.3-1.3,0.8C27.9,62,27.8,62.6,28,63.1z M36.6,63.5
		l0.5,2.9l-3.9,1.8L31.9,64L36.6,63.5z"/>
	<path class="st0" d="M19.1,44.7c0.3,0.6,0.9,0.9,1.5,0.9c0.1,0,0.2,0,0.3,0l6-1c0.5-0.1,1-0.4,1.2-0.8c0.3-0.5,0.3-1,0.1-1.5
		l-1.9-4.8c-0.2-0.6-0.7-1-1.3-1.1l-7.9-1.2c-0.6-0.1-1.3,0.2-1.7,0.7c-0.4,0.5-0.4,1.2-0.1,1.8L19.1,44.7z M23.5,39.6l0.8,1.9
		L21.6,42L20,39.1L23.5,39.6z"/>
	<path class="st0" d="M78.3,20.6c0.3,0.7,0.9,1.1,1.6,1.1c0.1,0,0.1,0,0.2,0l5.8-0.6c0.9-0.1,1.6-0.9,1.5-1.8l-0.3-8.5
		c0-0.5-0.3-1-0.7-1.3C86,9.3,85.5,9.2,85,9.3l-8.2,2c-0.5,0.1-0.9,0.4-1.1,0.9c-0.2,0.4-0.3,1-0.1,1.4L78.3,20.6z M83.8,13.1
		l0.2,4.7L81,18.2l-1.6-4L83.8,13.1z"/>
	<path class="st0" d="M34.4,92.4c-1.7,1.7-2.7,3.8-2.7,5.6c0,1.1,0.4,2.1,1.1,2.8c0.7,0.7,1.7,1.1,2.8,1.1c1.8,0,3.9-1,5.6-2.7
		c1.7-1.7,2.7-3.8,2.7-5.6c0-1.1-0.4-2.1-1.1-2.8C40.9,89,37.1,89.7,34.4,92.4z M38.7,96.7c-1.2,1.2-2.4,1.7-3.1,1.7L35.1,98
		c0-0.7,0.5-2,1.7-3.1c1.2-1.2,2.4-1.7,3.1-1.7l0.4,0.4C40.4,94.3,39.9,95.6,38.7,96.7z"/>
	<path class="st0" d="M50.2,27.3c0.6,0.4,1.3,0.9,1.5,1.1c0.3,0.3,0.6,0.6,1.1,1c1.8,1.5,4.4,3.8,4.5,6.8c0.1,2.2-1.3,4.6-4,7.2
		c-3.1,2.9-4.3,5.8-3.6,8.7c1.1,4.5,6.8,8.2,17,11.2c2.6,0.7,3.9,2,3.9,2.7c0,0.8-1.6,2.7-7.4,4.3c-5.8,1.6-6.9,4.4-6.9,6.4
		c0.1,4.5,6.8,8.9,13,10.4c0.1,0,0.3,0,0.4,0c0.4,0,0.9-0.2,1.2-0.5l1.5-1.5c0.4-0.4,0.6-0.9,0.5-1.5c-0.1-0.5-0.4-1-0.9-1.3
		c-6.5-3.5-6.8-5-6.8-5c0.2-0.5,1.9-1.1,2.7-1.4l0.8-0.3c2-0.7,11.7-4.2,11.9-10c0.1-3.4-3-6.3-9.5-8.9c-3.5-1.4-13-5.2-13.4-7.4
		c-0.2-0.8,1.4-2.4,3-4.2l1.5-1.6c2.8-3,4-5.9,3.8-8.7c-0.3-4.5-4.2-8.4-8.4-11.9c-9.4-7.8-10.8-12.6-10.5-20.5c0-0.5-0.2-1-0.6-1.3
		c-0.4-0.3-0.9-0.5-1.4-0.4c-1,0.1-1.7,0.1-1.9,0C43,0.3,42.5,0,42,0c-0.6,0-1.4,0.4-1.6,1.1C34.5,17,45.5,24.2,50.2,27.3z
		 M64.2,81.2c-2.6-1.6-4.3-3.4-4.4-4.7c0-1.1,1.6-2.2,4.4-3c0.4-0.1,0.7-0.2,1.1-0.3C63.7,73.9,62,75,61.9,77
		C61.8,78.4,62.5,79.7,64.2,81.2z M69.9,59.8c6.7,2.7,7.4,4.8,7.3,5.6c-0.1,2.2-4.2,4.7-7.9,6.2c3.2-1.6,4.8-3.5,4.8-5.7
		c0-2.6-2.4-4.9-6.4-6.1C56,56.5,53.5,53,53,51.2c-0.4-1.5,0.4-3.3,2.4-5.2c-0.9,1.3-1.3,2.5-1,3.9C55.1,53,58.7,55.3,69.9,59.8z
		 M43,4.2c0.2,0,0.5,0.1,0.7,0.1c0,7.7,2.2,13.4,11.8,21.4c4.9,4.1,7,6.9,7.2,9.5c0.1,1.9-0.8,3.8-2.9,6.1l-0.9,1
		c1.4-2.1,2-4.1,2-6.2c-0.1-4.5-3.8-7.6-5.7-9.3c-0.4-0.3-0.7-0.6-0.9-0.8c-0.4-0.4-1.1-0.9-2.1-1.5C48,21.7,39.6,16.2,43,4.2z"/>
	<path class="st0" d="M8.7,80l-7.5,2c-0.6,0.2-1.1,0.6-1.2,1.2c-0.2,0.6,0,1.2,0.4,1.7l5.5,5.5c0.3,0.3,0.8,0.5,1.2,0.5
		c0.1,0,0.3,0,0.4-0.1c0.6-0.2,1.1-0.6,1.2-1.2l2-7.5c0.2-0.6,0-1.2-0.4-1.7C9.9,80,9.3,79.8,8.7,80z"/>
	<path class="st0" d="M105.7,44c0.1,0,0.2,0,0.2,0l10.7-1.5c0.6-0.1,1.1-0.5,1.4-1.1c0.2-0.6,0.1-1.2-0.2-1.7l-6.6-8.5
		c-0.4-0.5-1-0.7-1.6-0.6c-0.6,0.1-1.1,0.5-1.4,1.1l-4,10c-0.2,0.6-0.1,1.2,0.2,1.7C104.7,43.8,105.2,44,105.7,44z M110.2,35.7
		l3,3.8l-4.8,0.7L110.2,35.7z"/>
</g>
</svg>
